<?xml version="1.0" standalone="no"?>
<!DOCTYPE svg PUBLIC "-//W3C//DTD SVG 20010904//EN"
 "http://www.w3.org/TR/2001/REC-SVG-20010904/DTD/svg10.dtd">
<svg version="1.0" xmlns="http://www.w3.org/2000/svg"
 width="448.000000pt" height="448.000000pt" viewBox="0 0 448.000000 448.000000"
 preserveAspectRatio="xMidYMid meet">
<metadata>
Created by potrace 1.11, written by Peter Selinger 2001-2013
</metadata>
<g transform="translate(0.000000,448.000000) scale(0.100000,-0.100000)"
fill="#000000" stroke="none">
<path d="M1875 4092 c-51 -2 -73 -7 -82 -19 -9 -11 -13 -13 -13 -4 0 10 -16
12 -72 6 -85 -7 -325 -63 -334 -76 -3 -5 -10 -7 -15 -3 -5 3 -15 1 -22 -4 -7
-5 -29 -15 -49 -21 -28 -9 -36 -16 -32 -29 5 -13 4 -14 -4 -4 -7 11 -19 9 -58
-11 -27 -14 -64 -37 -83 -51 -19 -14 -40 -26 -45 -26 -6 0 -25 -13 -41 -29
-17 -15 -41 -33 -53 -40 -12 -7 -20 -16 -17 -22 4 -5 1 -9 -5 -9 -5 0 -32 -20
-58 -44 -26 -24 -68 -63 -94 -87 -26 -23 -44 -47 -41 -53 3 -6 3 -8 -2 -4 -4
4 -17 -2 -27 -15 -11 -12 -30 -34 -44 -49 -13 -15 -24 -32 -24 -38 0 -5 -5
-10 -11 -10 -6 0 -8 -7 -5 -16 3 -8 2 -13 -3 -10 -11 7 -47 -33 -56 -61 -3
-13 -11 -23 -16 -23 -10 0 -57 -72 -51 -78 2 -2 -6 -11 -17 -21 -11 -10 -37
-51 -56 -92 -20 -41 -43 -85 -51 -99 -8 -14 -12 -33 -10 -43 2 -9 1 -15 -3
-12 -11 6 -64 -101 -59 -117 3 -7 -1 -17 -9 -23 -24 -18 -111 -363 -119 -470
-8 -107 -8 -327 0 -395 3 -30 8 -73 10 -95 3 -22 6 -42 7 -45 1 -3 1 -9 0 -13
-2 -11 52 -180 59 -187 3 -3 6 -17 7 -32 2 -34 91 -218 105 -218 5 0 8 -9 5
-20 -3 -11 -1 -20 3 -20 5 0 17 -16 26 -35 9 -19 21 -32 27 -28 6 3 7 1 3 -6
-12 -19 4 -50 35 -67 16 -8 27 -19 24 -24 -4 -6 -1 -10 4 -10 6 0 11 -7 11
-15 0 -9 16 -31 35 -50 19 -20 42 -49 51 -66 10 -19 21 -29 30 -25 8 3 14 0
14 -6 0 -17 150 -159 169 -161 10 0 28 -15 41 -32 25 -34 87 -82 111 -87 8 -2
19 -10 26 -18 7 -8 13 -11 13 -6 0 4 15 -5 34 -22 19 -16 67 -46 107 -67 41
-20 82 -44 92 -53 9 -8 20 -12 23 -9 4 4 19 0 33 -8 59 -32 121 -55 135 -49 9
3 16 2 16 -3 0 -5 15 -14 33 -20 17 -6 56 -20 85 -32 30 -11 79 -25 110 -31
32 -6 72 -17 90 -23 27 -9 35 -9 43 3 9 12 10 12 5 -3 -5 -16 12 -22 63 -19 8
0 26 -4 40 -10 14 -6 58 -11 97 -13 40 -1 77 -5 82 -9 6 -3 13 -2 17 3 3 6 21
5 45 -4 36 -13 40 -12 40 2 0 12 3 13 14 4 20 -16 292 -2 379 20 20 6 41 8 46
5 4 -3 16 1 27 8 10 8 24 12 31 9 7 -3 13 0 13 7 0 6 4 9 9 6 12 -8 131 14
161 29 14 7 42 15 63 19 25 5 37 12 37 24 0 12 3 13 8 5 6 -9 20 -6 57 12 28
13 57 25 66 25 14 0 62 23 184 88 17 9 36 17 43 18 8 1 30 14 51 28 20 14 40
26 44 26 9 0 56 32 117 81 25 19 61 45 82 57 20 13 53 41 74 65 21 23 41 42
44 42 3 0 4 6 4 13 -1 6 6 12 15 12 31 0 246 223 234 243 -3 5 -2 7 4 4 5 -3
23 12 39 34 16 22 37 49 47 61 9 12 17 26 17 32 0 6 22 38 49 71 27 33 48 62
46 64 -2 2 3 10 11 18 8 8 12 18 9 23 -3 4 2 13 10 20 8 7 15 18 15 26 0 7 21
52 47 100 29 55 42 89 35 92 -7 2 -12 8 -12 14 0 6 6 8 14 5 10 -4 20 7 30 34
9 22 14 44 12 48 -3 5 1 17 9 27 18 23 19 66 3 82 -9 9 -8 12 5 12 9 0 24 14
32 31 18 35 43 175 40 226 -1 18 2 33 7 33 19 0 -3 314 -25 355 -6 11 -12 22
-12 25 -1 3 -5 25 -9 50 -8 44 -32 113 -61 177 -8 17 -15 34 -15 37 0 7 -71
117 -80 126 -3 3 -19 28 -34 55 -38 67 -94 125 -115 118 -14 -4 -14 -3 -1 6
13 9 8 17 -27 51 -24 23 -43 43 -43 47 0 3 -10 15 -23 27 -117 107 -182 163
-205 176 -14 8 -43 30 -63 48 -87 78 -263 182 -474 278 -33 15 -64 28 -70 29
-5 0 -15 4 -22 8 -6 4 -15 2 -19 -5 -5 -8 -10 -4 -16 11 -4 12 -12 19 -18 16
-5 -3 -10 -2 -10 2 0 5 -24 16 -52 25 -29 10 -83 26 -119 38 -36 11 -80 22
-97 23 -18 1 -32 5 -32 10 0 4 -11 7 -24 7 -13 0 -26 -3 -29 -7 -2 -5 -3 -3
-1 2 1 9 -71 28 -146 40 -8 1 -33 7 -55 13 -41 12 -70 15 -265 32 -133 11
-334 17 -435 12z m207 -105 c43 -3 69 0 71 7 3 8 8 8 18 -1 8 -6 59 -14 114
-16 55 -3 125 -10 155 -16 80 -15 106 -19 198 -32 45 -7 82 -15 82 -19 0 -4 6
-7 13 -7 10 -1 47 -7 102 -17 6 -1 20 -8 33 -15 13 -7 28 -10 35 -8 7 2 25 -2
40 -10 15 -8 32 -11 37 -8 6 3 10 2 10 -3 0 -8 44 -24 76 -26 6 -1 18 -6 25
-12 8 -6 32 -17 54 -24 22 -7 49 -17 60 -23 11 -5 27 -13 35 -17 8 -4 43 -21
78 -39 35 -17 68 -28 74 -25 7 4 8 2 4 -4 -4 -7 -1 -12 8 -12 8 0 25 -10 37
-22 12 -13 19 -18 15 -11 -3 6 14 1 40 -13 25 -13 50 -22 55 -19 5 4 9 2 9 -3
0 -5 11 -21 25 -36 14 -15 25 -22 25 -15 0 6 9 0 21 -15 11 -14 26 -26 32 -26
7 0 29 -16 50 -35 20 -18 37 -32 37 -29 0 3 12 -7 26 -21 14 -14 30 -23 35
-20 5 4 9 -3 9 -14 0 -12 5 -21 11 -21 6 0 23 -12 39 -27 15 -16 36 -35 46
-44 11 -9 33 -31 50 -50 17 -19 42 -43 57 -54 15 -11 27 -23 27 -28 0 -4 12
-20 26 -35 14 -15 37 -44 50 -65 16 -24 29 -35 37 -30 9 5 8 3 -1 -9 -10 -13
-8 -19 13 -39 13 -13 37 -47 51 -76 19 -37 31 -50 43 -46 13 4 13 2 -2 -10
-10 -8 -14 -18 -9 -21 5 -3 15 -27 22 -53 7 -27 17 -52 21 -58 5 -5 9 -16 9
-25 0 -8 7 -28 16 -45 14 -26 27 -87 39 -178 3 -18 0 -25 -7 -21 -6 4 -8 3 -5
-3 21 -33 23 -240 3 -272 -3 -4 -8 -32 -11 -61 -4 -30 -9 -58 -12 -64 -10 -16
-12 -56 -2 -56 4 0 6 -7 3 -15 -4 -8 -10 -13 -15 -10 -9 6 -31 -64 -23 -77 3
-4 1 -8 -5 -8 -6 0 -13 -11 -17 -25 -3 -14 -10 -25 -15 -25 -5 0 -9 -7 -9 -15
0 -8 6 -15 13 -15 8 0 7 -3 -3 -10 -8 -5 -15 -13 -16 -17 -2 -15 -33 -78 -54
-108 -11 -16 -20 -35 -20 -42 0 -7 -12 -29 -26 -50 -14 -21 -28 -50 -31 -65
-3 -16 -9 -28 -14 -28 -5 0 -9 -9 -9 -21 0 -14 -5 -19 -14 -16 -10 4 -18 -2
-22 -16 -8 -25 -31 -59 -91 -135 -24 -30 -40 -59 -36 -67 3 -8 0 -15 -6 -15
-6 0 -11 6 -11 13 0 6 -8 -2 -18 -18 -10 -17 -35 -44 -55 -62 -20 -18 -37 -35
-37 -39 0 -8 -111 -114 -119 -114 -3 0 -20 -13 -37 -29 -17 -16 -44 -36 -60
-44 -16 -9 -45 -30 -64 -46 -54 -47 -55 -48 -76 -55 -10 -3 -32 -17 -48 -31
-16 -14 -35 -25 -43 -25 -7 0 -13 -4 -13 -8 0 -9 -98 -52 -117 -52 -7 0 -10
-7 -6 -15 3 -9 2 -15 -3 -13 -15 4 -104 -34 -104 -44 0 -6 -7 -7 -16 -4 -9 3
-44 -7 -77 -22 -76 -35 -120 -49 -174 -58 -24 -4 -43 -11 -43 -16 0 -5 -5 -6
-11 -3 -15 10 -70 -15 -62 -29 5 -7 2 -7 -8 1 -11 9 -27 9 -58 2 -24 -5 -55
-11 -70 -14 -14 -2 -37 -6 -51 -9 -78 -16 -257 -23 -362 -13 -31 3 -48 0 -48
-7 0 -7 -3 -7 -8 -1 -4 6 -35 11 -70 12 -34 1 -71 7 -81 13 -11 5 -39 10 -63
10 -24 1 -61 7 -83 15 -21 8 -41 12 -43 10 -3 -2 -18 3 -34 11 -16 8 -35 13
-41 11 -7 -2 -21 0 -32 6 -25 13 -56 16 -49 5 3 -4 0 -8 -5 -8 -6 0 -11 6 -11
13 0 13 -57 36 -107 44 -13 2 -46 16 -75 30 -29 15 -62 29 -73 30 -11 2 -31
12 -45 22 -14 10 -38 21 -53 25 -15 3 -25 11 -22 16 3 6 -2 10 -12 10 -10 0
-27 7 -37 15 -11 8 -27 15 -37 15 -9 0 -20 7 -23 16 -4 9 -13 14 -22 10 -8 -3
-13 -2 -10 3 3 4 -16 20 -42 34 -26 14 -60 40 -77 58 -16 18 -43 38 -61 45
-17 7 -42 26 -55 43 -13 16 -26 28 -30 25 -9 -5 -59 42 -59 56 0 5 -7 10 -15
10 -8 0 -15 3 -15 8 0 4 -16 24 -35 45 -18 20 -32 37 -29 37 2 0 -15 19 -39
43 -24 24 -42 48 -40 53 2 5 -13 28 -32 49 -19 22 -39 45 -43 50 -14 18 -82
149 -82 160 0 5 -9 21 -20 35 -11 14 -20 30 -20 37 0 6 -5 24 -12 40 -6 15
-10 34 -9 42 1 8 -1 17 -6 20 -11 8 -45 84 -42 97 6 32 -3 54 -21 54 -11 0
-20 5 -20 11 0 6 7 8 16 5 9 -4 13 -2 8 5 -4 6 -8 37 -10 68 -1 31 -5 67 -8
81 -8 32 -8 254 -1 345 3 39 6 80 6 93 -1 12 4 22 10 22 7 0 8 14 4 40 -4 24
-3 40 3 40 5 0 12 19 16 43 8 51 33 140 51 183 8 19 10 35 4 41 -5 5 1 23 16
45 14 20 25 43 25 51 0 8 6 20 14 27 8 6 12 18 9 26 -3 8 -1 14 5 14 5 0 12 8
16 18 3 9 15 33 27 52 12 19 22 40 23 45 9 45 80 164 125 211 12 12 21 26 21
31 0 14 76 110 117 149 18 18 33 35 33 39 0 4 12 20 28 34 15 15 38 40 52 57
14 16 40 40 58 52 19 14 29 28 26 35 -4 7 -4 9 0 5 5 -4 29 9 55 28 25 19 67
51 93 70 32 24 45 40 41 51 -5 13 -3 14 16 4 24 -13 35 -9 90 39 9 8 26 16 36
18 11 2 30 10 42 17 21 14 94 28 203 41 30 3 66 8 80 10 14 3 95 8 180 11 85
3 156 7 158 8 2 2 11 1 20 -1 9 -2 47 -5 84 -7z m812 -93 c5 -14 4 -15 -9 -4
-17 14 -19 20 -6 20 5 0 12 -7 15 -16z m246 -52 c0 -10 -7 -19 -15 -19 -15 0
-20 18 -8 30 12 13 23 7 23 -11z m-2410 -326 c0 -3 -4 -8 -10 -11 -5 -3 -10
-1 -10 4 0 6 5 11 10 11 6 0 10 -2 10 -4z m-135 -236 c3 -5 1 -10 -4 -10 -6 0
-11 5 -11 10 0 6 2 10 4 10 3 0 8 -4 11 -10z m3870 -950 c3 -5 1 -10 -4 -10
-6 0 -11 5 -11 10 0 6 2 10 4 10 3 0 8 -4 11 -10z m-4205 -500 c0 -5 -4 -10
-10 -10 -5 0 -10 5 -10 10 0 6 5 10 10 10 6 0 10 -4 10 -10z m3748 -555 c-3
-3 -9 2 -12 12 -6 14 -5 15 5 6 7 -7 10 -15 7 -18z m-318 -359 c0 -3 -4 -8
-10 -11 -5 -3 -10 -1 -10 4 0 6 5 11 10 11 6 0 10 -2 10 -4z"/>
<path d="M2120 3905 c-43 -18 -59 -31 -73 -59 -14 -27 -16 -40 -8 -50 6 -7 8
-16 4 -19 -3 -4 2 -7 12 -7 10 0 15 -3 12 -7 -4 -3 6 -13 21 -21 35 -19 161
-19 173 0 5 7 9 9 9 4 0 -6 14 3 30 19 19 18 27 32 21 38 -5 5 -7 16 -4 23 3
8 1 14 -5 14 -5 0 -12 13 -15 28 -4 19 -17 33 -42 45 -45 22 -67 20 -135 -8z
m117 -76 c28 -24 -22 -45 -98 -40 -8 1 -24 7 -35 15 -18 14 -18 15 -1 28 21
16 113 14 134 -3z"/>
<path d="M2320 3292 c-17 -18 -26 -187 -11 -196 6 -4 6 -18 1 -34 -4 -17 -3
-36 3 -47 10 -19 11 -19 18 0 7 19 8 19 15 -2 6 -23 34 -33 34 -13 0 6 6 10
13 10 13 0 20 37 21 118 1 28 4 52 9 52 4 0 7 9 7 20 0 11 -4 20 -9 20 -4 0
-6 10 -4 23 2 12 -2 30 -9 40 -18 24 -69 29 -88 9z"/>
<path d="M2097 3163 c-15 -4 -16 -7 -5 -21 9 -11 9 -13 1 -9 -26 16 -42 -35
-40 -121 2 -70 5 -86 21 -98 28 -20 70 -19 62 2 -3 8 -2 13 3 10 4 -3 13 6 20
20 8 17 8 23 0 19 -6 -4 -3 7 6 25 31 60 20 150 -21 169 -14 6 -26 10 -27 10
-1 -1 -10 -3 -20 -6z"/>
<path d="M1486 2803 c-3 -3 -29 -8 -58 -10 -29 -1 -71 -10 -93 -19 -22 -9 -41
-15 -43 -14 -1 1 -17 -2 -35 -6 -17 -4 -53 -7 -79 -7 -37 -1 -48 -4 -48 -16 0
-12 -2 -13 -8 -4 -8 13 -39 11 -69 -5 -10 -6 -21 -10 -26 -10 -4 0 -26 -3 -48
-7 -34 -6 -43 -13 -55 -40 -20 -48 0 -150 40 -204 6 -7 11 -19 11 -25 1 -25
47 -145 61 -156 8 -7 14 -19 14 -26 0 -8 18 -44 40 -80 22 -36 40 -69 40 -74
0 -4 11 -19 24 -33 13 -14 21 -28 18 -31 -3 -3 0 -6 6 -6 7 0 12 -5 12 -11 0
-17 51 -79 66 -79 8 0 11 -6 8 -14 -3 -9 3 -20 15 -28 12 -7 21 -18 21 -23 0
-14 77 -118 122 -167 20 -21 33 -40 30 -43 -3 -3 -1 -5 5 -5 6 0 23 -19 39
-42 30 -43 107 -122 241 -248 44 -41 88 -88 98 -104 11 -16 21 -24 23 -17 2 7
12 -1 23 -18 10 -16 31 -38 46 -48 15 -10 47 -36 69 -58 23 -22 54 -49 69 -60
15 -11 38 -30 52 -42 14 -13 29 -23 33 -23 4 0 18 -9 31 -21 13 -11 36 -23 51
-26 15 -3 25 -10 22 -15 -4 -6 9 -6 33 -2 21 4 44 7 51 7 6 0 12 5 12 10 0 5
7 7 15 4 8 -4 17 -2 20 3 3 5 20 16 38 25 18 8 45 26 61 40 16 14 32 25 36 25
4 0 13 11 20 25 7 14 18 25 24 25 16 1 56 36 56 50 0 6 4 9 9 5 5 -3 18 6 29
20 11 13 23 21 27 17 5 -4 6 -2 2 3 -8 15 1 25 51 59 23 16 42 31 42 35 0 3
23 30 50 59 28 30 50 58 50 63 0 5 10 14 23 20 12 6 33 26 47 45 23 32 44 57
123 143 15 16 27 35 27 41 0 7 10 20 23 30 12 10 36 41 52 69 17 28 36 51 43
51 6 0 12 3 12 8 0 4 10 18 23 32 13 14 30 40 38 58 7 17 19 32 26 32 6 0 21
20 33 45 12 25 26 47 31 51 11 6 77 104 100 147 9 17 15 43 14 58 -2 21 1 26
16 22 11 -3 19 -1 19 4 0 5 9 19 20 31 12 12 18 22 15 22 -3 0 1 13 10 30 8
16 15 38 15 50 0 11 4 20 9 20 11 0 42 47 45 67 1 8 9 19 17 24 12 7 12 9 -1
9 -12 0 -13 2 -1 9 18 12 6 61 -15 61 -8 0 -17 6 -20 14 -3 8 -12 17 -20 20
-9 4 -12 2 -8 -5 4 -7 -3 -6 -17 2 -13 7 -37 14 -54 15 -16 2 -43 6 -60 9 -16
4 -40 8 -53 10 -13 1 -28 7 -34 13 -6 6 -16 8 -23 6 -7 -3 -16 -1 -19 5 -9 14
-38 2 -29 -13 3 -6 -6 2 -22 17 -16 15 -31 24 -34 20 -12 -17 -41 -14 -41 4 0
11 -3 14 -8 7 -4 -6 -14 -10 -22 -9 -168 27 -230 35 -312 40 -37 2 -71 6 -77
9 -5 4 -12 2 -16 -4 -4 -6 -12 -7 -18 -3 -7 4 -16 8 -22 9 -92 15 -99 17 -107
29 -5 6 -8 6 -8 -1 0 -13 -114 -16 -176 -5 -24 5 -41 5 -38 0 3 -5 -6 -5 -20
1 -14 5 -26 6 -26 1 0 -5 -17 -7 -37 -5 -82 9 -283 11 -283 2 0 -5 -5 -6 -12
-2 -20 12 -343 23 -361 12 -6 -4 -16 -3 -22 2 -12 10 -150 22 -159 13z m644
-63 c0 -11 -7 -20 -15 -20 -15 0 -21 21 -8 33 12 13 23 7 23 -13z m-285 -40
c3 -5 1 -10 -4 -10 -6 0 -11 5 -11 10 0 6 2 10 4 10 3 0 8 -4 11 -10z m-303
-9 c75 0 197 -1 223 -2 6 0 20 2 33 5 12 2 22 1 22 -4 0 -5 19 -8 43 -7 23 1
59 -2 80 -6 25 -5 37 -3 37 4 0 8 4 8 13 1 14 -12 217 -9 238 3 7 5 10 4 5 -3
-4 -8 23 -11 90 -11 53 0 132 -5 175 -11 51 -7 85 -8 96 -1 11 6 24 6 37 -1
13 -7 21 -7 26 2 9 14 21 15 29 2 3 -6 40 -13 81 -17 41 -4 86 -8 100 -10 58
-8 124 -16 129 -17 22 -2 31 4 25 15 -4 6 2 4 13 -5 25 -23 90 -23 115 -1 18
16 23 10 19 -24 -2 -14 0 -15 39 -17 38 -3 149 -25 205 -41 28 -8 61 -17 75
-18 14 -2 34 -8 44 -12 16 -7 17 -10 4 -19 -8 -6 -22 -26 -31 -44 -15 -30 -15
-32 1 -30 21 4 28 -28 7 -35 -9 -4 -15 -1 -15 8 0 27 -18 15 -34 -22 -9 -21
-35 -67 -57 -103 -22 -36 -38 -73 -35 -82 2 -10 1 -17 -3 -16 -19 2 -31 -3
-26 -12 3 -5 2 -10 -3 -10 -5 0 -29 -29 -53 -65 -24 -36 -48 -65 -52 -65 -5 0
-6 -4 -2 -9 3 -5 -6 -18 -20 -29 -13 -11 -21 -22 -18 -26 3 -3 1 -6 -5 -6 -7
0 -12 -6 -12 -13 0 -7 -13 -27 -29 -45 -17 -17 -28 -32 -25 -32 5 0 -9 -18
-48 -60 -15 -16 -30 -36 -35 -43 -4 -8 -28 -37 -53 -65 -86 -96 -131 -156
-124 -166 2 -3 1 -4 -2 -2 -3 2 -50 -39 -104 -93 -54 -53 -103 -100 -109 -106
-6 -5 -34 -34 -62 -63 -28 -28 -52 -52 -55 -52 -11 0 -44 -36 -44 -49 0 -8 -3
-11 -6 -8 -11 10 -45 -13 -38 -25 4 -7 3 -8 -4 -4 -6 4 -32 -9 -57 -29 -26
-19 -54 -36 -63 -37 -32 -2 -37 -4 -48 -10 -6 -4 -17 1 -26 10 -31 35 -69 62
-79 57 -5 -4 -8 -2 -7 3 3 12 -102 112 -117 112 -11 0 -105 101 -105 112 0 5
-5 8 -11 8 -6 0 -22 14 -36 30 -13 17 -30 30 -36 30 -7 0 -28 18 -47 40 -19
22 -41 40 -47 40 -7 0 -13 5 -13 11 0 6 -23 32 -50 58 -28 26 -47 51 -43 54 3
4 1 7 -5 7 -7 0 -12 7 -12 15 0 8 -4 15 -10 15 -5 0 -33 25 -62 55 -29 30 -58
55 -65 55 -6 0 -15 10 -19 22 -3 12 -12 28 -18 34 -6 7 -23 28 -39 46 -73 88
-97 121 -97 134 0 7 -11 21 -25 30 -14 9 -25 24 -25 34 0 10 -13 30 -30 43
-16 14 -30 30 -30 35 0 16 -31 72 -41 72 -5 0 -9 6 -9 14 0 8 -3 16 -7 18 -8
3 -23 29 -72 123 -14 28 -30 53 -36 57 -5 4 -7 8 -2 8 4 0 -2 19 -15 43 -12
23 -20 56 -19 73 1 18 -2 35 -8 39 -18 11 6 44 29 40 11 -2 25 2 32 8 7 7 24
13 38 14 14 1 61 4 105 7 93 6 135 14 135 26 0 4 8 6 18 4 9 -2 31 0 47 4 17
5 33 8 37 6 3 -3 44 -4 90 -3z m2008 -71 c0 -5 -5 -10 -11 -10 -5 0 -7 5 -4
10 3 6 8 10 11 10 2 0 4 -4 4 -10z m20 -184 c0 -3 -4 -8 -10 -11 -5 -3 -10 -1
-10 4 0 6 5 11 10 11 6 0 10 -2 10 -4z"/>
</g>
</svg>
